<?xml version="1.0" standalone="no"?><!DOCTYPE svg PUBLIC "-//W3C//DTD SVG 1.1//EN" "http://www.w3.org/Graphics/SVG/1.1/DTD/svg11.dtd"><svg t="1711896296677" class="icon" viewBox="0 0 1024 1024" version="1.1" xmlns="http://www.w3.org/2000/svg" p-id="4254" xmlns:xlink="http://www.w3.org/1999/xlink" width="32" height="32"><path d="M1023.459914 42.81874l-146.256322 877.625699c-1.901713 11.000675-8.104221 19.602268-18.30764 25.702376a36.732309 36.732309 0 0 1-17.700555 4.607996c-4.20571 0-8.806392-1.002056-13.714273-2.903769l-236.887551-96.841053a32.036542 32.036542 0 0 0-36.812766 9.311077l-123.340686 150.454718c-6.904679 8.799078-16.310842 13.099874-28.013688 13.099873-4.900567 0-9.098963-0.797256-12.704902-2.296683-7.204565-2.706283-13.004788-7.007079-17.407984-13.407074-4.395882-6.297594-6.707194-13.202273-6.707194-20.911523v-176.456979c0-14.811415 5.105367-29.015744 14.40913-40.521105l479.282755-587.519455-603.325612 522.202944a16.069471 16.069471 0 0 1-16.508327 2.698969L22.8885 618.927919C8.779256 613.632381 1.07732 603.224162 0.06795 587.410691c-0.789942-15.206386 5.310166-26.506947 18.314954-33.813911L969.136764 5.106318A34.494139 34.494139 0 0 1 987.43709 0.000951c7.701936 0 14.606615 2.194284 20.706724 6.399994 12.704902 8.996563 17.605469 21.313809 15.308785 36.417795z" p-id="4255" fill="#1296db"></path></svg>